# xmcd
#
# Track frame offsets: 
#        150
#        19190
#        34920
#        62550
#        89989
#        122364
#        158597
#        166994
#
# Disc length: 2809 seconds
#
# Revision: 3
# Processed by: cddbd v1.5.2PL0 Copyright (c) Steve Scherf et al.
# Submitted via: ExactAudioCopy v1.3
#
DISCID=5f0af708
DTITLE=Gaye, Marvin - Live In Montreux (2)
DYEAR=1980
DGENRE=Soul
TTITLE0=Ain't That Peculiar
TTITLE1=I'll Be Doggone
TTITLE2=I Heard It Through The Grapevine
TTITLE3=Trouble Man
TTITLE4=Distant Lover
TTITLE5=Inner City Blues
TTITLE6=Mercy Mercy Me
TTITLE7=What's Going On
EXTD=
EXTT0=
EXTT1=
EXTT2=
EXTT3=
EXTT4=
EXTT5=
EXTT6=
EXTT7=
PLAYORDER=
